<svg width="110" height="37" viewBox="0 0 110 37" fill="none" xmlns="http://www.w3.org/2000/svg">
<rect x="1" y="1.5" width="108" height="34" rx="11" stroke="white" stroke-width="2"/>
<path d="M15.3333 23.9916C15.3333 24.2127 15.2455 24.4246 15.0892 24.5809C14.9329 24.7372 14.721 24.825 14.5 24.825C14.2789 24.825 14.067 24.7372 13.9107 24.5809C13.7544 24.4246 13.6666 24.2127 13.6666 23.9916V18.9166C13.6666 14.3141 17.3975 10.5833 22 10.5833C26.6025 10.5833 30.3333 14.3141 30.3333 18.9166V21.4883C30.3333 21.7093 30.2455 21.9213 30.0892 22.0776C29.9329 22.2338 29.721 22.3216 29.5 22.3216C29.2789 22.3216 29.067 22.2338 28.9107 22.0776C28.7544 21.9213 28.6666 21.7093 28.6666 21.4883V18.9166C28.6666 17.1485 27.9642 15.4528 26.714 14.2026C25.4638 12.9524 23.7681 12.25 22 12.25C20.2318 12.25 18.5362 12.9524 17.2859 14.2026C16.0357 15.4528 15.3333 17.1485 15.3333 18.9166V23.9916ZM15.3333 18.9166H17C17.442 18.9166 17.8659 19.0922 18.1785 19.4048C18.491 19.7174 18.6666 20.1413 18.6666 20.5833V24.75C18.6666 25.192 18.491 25.6159 18.1785 25.9285C17.8659 26.2411 17.442 26.4166 17 26.4166H15.3333C14.8913 26.4166 14.4673 26.2411 14.1548 25.9285C13.8422 25.6159 13.6666 25.192 13.6666 24.75V20.5833C13.6666 20.1413 13.8422 19.7174 14.1548 19.4048C14.4673 19.0922 14.8913 18.9166 15.3333 18.9166ZM15.3333 20.5833V24.75H17V20.5833H15.3333ZM27 18.9166H28.6666C29.1087 18.9166 29.5326 19.0922 29.8451 19.4048C30.1577 19.7174 30.3333 20.1413 30.3333 20.5833V24.75C30.3333 25.192 30.1577 25.6159 29.8451 25.9285C29.5326 26.2411 29.1087 26.4166 28.6666 26.4166H27C26.5579 26.4166 26.134 26.2411 25.8214 25.9285C25.5089 25.6159 25.3333 25.192 25.3333 24.75V20.5833C25.3333 20.1413 25.5089 19.7174 25.8214 19.4048C26.134 19.0922 26.5579 18.9166 27 18.9166ZM27 20.5833V24.75H28.6666V20.5833H27Z" fill="white"/>
<path d="M44.875 19.7969H46.8281C46.7656 20.5417 46.5573 21.2057 46.2031 21.7891C45.849 22.3672 45.3516 22.8229 44.7109 23.1562C44.0703 23.4896 43.2917 23.6562 42.375 23.6562C41.6719 23.6562 41.0391 23.5312 40.4766 23.2812C39.9141 23.026 39.4323 22.6667 39.0312 22.2031C38.6302 21.7344 38.3229 21.1693 38.1094 20.5078C37.901 19.8464 37.7969 19.1068 37.7969 18.2891V17.3438C37.7969 16.526 37.9036 15.7865 38.1172 15.125C38.3359 14.4635 38.6484 13.8984 39.0547 13.4297C39.4609 12.9557 39.9479 12.5938 40.5156 12.3438C41.0885 12.0938 41.7318 11.9688 42.4453 11.9688C43.3516 11.9688 44.1172 12.1354 44.7422 12.4688C45.3672 12.8021 45.8516 13.263 46.1953 13.8516C46.5443 14.4401 46.7578 15.1146 46.8359 15.875H44.8828C44.8307 15.3854 44.7161 14.9661 44.5391 14.6172C44.3672 14.2682 44.112 14.0026 43.7734 13.8203C43.4349 13.6328 42.9922 13.5391 42.4453 13.5391C41.9974 13.5391 41.6068 13.6224 41.2734 13.7891C40.9401 13.9557 40.6615 14.2005 40.4375 14.5234C40.2135 14.8464 40.0443 15.2448 39.9297 15.7188C39.8203 16.1875 39.7656 16.724 39.7656 17.3281V18.2891C39.7656 18.862 39.8151 19.3828 39.9141 19.8516C40.0182 20.3151 40.1745 20.7135 40.3828 21.0469C40.5964 21.3802 40.8672 21.638 41.1953 21.8203C41.5234 22.0026 41.9167 22.0938 42.375 22.0938C42.9323 22.0938 43.3828 22.0052 43.7266 21.8281C44.0755 21.651 44.3385 21.3932 44.5156 21.0547C44.6979 20.7109 44.8177 20.2917 44.875 19.7969ZM50.7812 11.5V23.5H48.9062V11.5H50.7812ZM50.4531 18.9609L49.8438 18.9531C49.849 18.3698 49.9297 17.8307 50.0859 17.3359C50.2474 16.8411 50.4714 16.4115 50.7578 16.0469C51.0495 15.6771 51.3984 15.3932 51.8047 15.1953C52.2109 14.9922 52.6615 14.8906 53.1562 14.8906C53.5729 14.8906 53.9479 14.9479 54.2812 15.0625C54.6198 15.1771 54.9115 15.362 55.1562 15.6172C55.401 15.8672 55.5859 16.1953 55.7109 16.6016C55.8411 17.0026 55.9062 17.4922 55.9062 18.0703V23.5H54.0156V18.0547C54.0156 17.6484 53.9557 17.3255 53.8359 17.0859C53.7214 16.8464 53.5521 16.6745 53.3281 16.5703C53.1042 16.4609 52.8307 16.4062 52.5078 16.4062C52.1693 16.4062 51.8698 16.474 51.6094 16.6094C51.3542 16.7448 51.1406 16.9297 50.9688 17.1641C50.7969 17.3984 50.6667 17.6693 50.5781 17.9766C50.4948 18.2839 50.4531 18.612 50.4531 18.9609ZM63.0781 21.8047V17.7734C63.0781 17.4714 63.0234 17.2109 62.9141 16.9922C62.8047 16.7734 62.638 16.6042 62.4141 16.4844C62.1953 16.3646 61.9193 16.3047 61.5859 16.3047C61.2786 16.3047 61.013 16.3568 60.7891 16.4609C60.5651 16.5651 60.3906 16.7057 60.2656 16.8828C60.1406 17.0599 60.0781 17.2604 60.0781 17.4844H58.2031C58.2031 17.151 58.2839 16.8281 58.4453 16.5156C58.6068 16.2031 58.8411 15.9245 59.1484 15.6797C59.4557 15.4349 59.8229 15.2422 60.25 15.1016C60.6771 14.9609 61.1562 14.8906 61.6875 14.8906C62.3229 14.8906 62.8854 14.9974 63.375 15.2109C63.8698 15.4245 64.2578 15.7474 64.5391 16.1797C64.8255 16.6068 64.9688 17.1432 64.9688 17.7891V21.5469C64.9688 21.9323 64.9948 22.2786 65.0469 22.5859C65.1042 22.888 65.1849 23.151 65.2891 23.375V23.5H63.3594C63.2708 23.2969 63.2005 23.0391 63.1484 22.7266C63.1016 22.4089 63.0781 22.1016 63.0781 21.8047ZM63.3516 18.3594L63.3672 19.5234H62.0156C61.6667 19.5234 61.3594 19.5573 61.0938 19.625C60.8281 19.6875 60.6068 19.7812 60.4297 19.9062C60.2526 20.0312 60.1198 20.1823 60.0312 20.3594C59.9427 20.5365 59.8984 20.737 59.8984 20.9609C59.8984 21.1849 59.9505 21.3906 60.0547 21.5781C60.1589 21.7604 60.3099 21.9036 60.5078 22.0078C60.7109 22.112 60.9557 22.1641 61.2422 22.1641C61.6276 22.1641 61.9635 22.0859 62.25 21.9297C62.5417 21.7682 62.7708 21.5729 62.9375 21.3438C63.1042 21.1094 63.1927 20.888 63.2031 20.6797L63.8125 21.5156C63.75 21.7292 63.6432 21.9583 63.4922 22.2031C63.3411 22.4479 63.1432 22.6823 62.8984 22.9062C62.6589 23.125 62.3698 23.3047 62.0312 23.4453C61.6979 23.5859 61.3125 23.6562 60.875 23.6562C60.3229 23.6562 59.8307 23.5469 59.3984 23.3281C58.9661 23.1042 58.6276 22.8047 58.3828 22.4297C58.138 22.0495 58.0156 21.6198 58.0156 21.1406C58.0156 20.6927 58.099 20.2969 58.2656 19.9531C58.4375 19.6042 58.6875 19.3125 59.0156 19.0781C59.349 18.8438 59.7552 18.6667 60.2344 18.5469C60.7135 18.4219 61.2604 18.3594 61.875 18.3594H63.3516ZM71.3125 15.0469V16.4219H66.5469V15.0469H71.3125ZM67.9219 12.9766H69.8047V21.1641C69.8047 21.4245 69.8411 21.625 69.9141 21.7656C69.9922 21.901 70.099 21.9922 70.2344 22.0391C70.3698 22.0859 70.5286 22.1094 70.7109 22.1094C70.8411 22.1094 70.9661 22.1016 71.0859 22.0859C71.2057 22.0703 71.3021 22.0547 71.375 22.0391L71.3828 23.4766C71.2266 23.5234 71.0443 23.5651 70.8359 23.6016C70.6328 23.638 70.3984 23.6562 70.1328 23.6562C69.7005 23.6562 69.3177 23.5807 68.9844 23.4297C68.651 23.2734 68.3906 23.0208 68.2031 22.6719C68.0156 22.3229 67.9219 21.8594 67.9219 21.2812V12.9766ZM77.7188 18.3594H74.8203L74.8047 16.9297H77.3359C77.763 16.9297 78.125 16.8672 78.4219 16.7422C78.724 16.612 78.9531 16.4271 79.1094 16.1875C79.2656 15.9427 79.3438 15.6484 79.3438 15.3047C79.3438 14.9245 79.2708 14.6146 79.125 14.375C78.9792 14.1354 78.7552 13.9609 78.4531 13.8516C78.1562 13.7422 77.776 13.6875 77.3125 13.6875H75.4141V23.5H73.4531V12.125H77.3125C77.9375 12.125 78.4948 12.1849 78.9844 12.3047C79.4792 12.4245 79.8984 12.612 80.2422 12.8672C80.5911 13.1172 80.8542 13.4349 81.0312 13.8203C81.2135 14.2057 81.3047 14.6641 81.3047 15.1953C81.3047 15.6641 81.1927 16.0938 80.9688 16.4844C80.7448 16.8698 80.4141 17.1849 79.9766 17.4297C79.5391 17.6745 78.9948 17.8203 78.3438 17.8672L77.7188 18.3594ZM77.6328 23.5H74.2031L75.0859 21.9453H77.6328C78.0755 21.9453 78.4453 21.8724 78.7422 21.7266C79.0391 21.5755 79.2604 21.3698 79.4062 21.1094C79.5573 20.8438 79.6328 20.5339 79.6328 20.1797C79.6328 19.8099 79.5677 19.4896 79.4375 19.2188C79.3073 18.9427 79.1016 18.7318 78.8203 18.5859C78.5391 18.4349 78.1719 18.3594 77.7188 18.3594H75.5156L75.5312 16.9297H78.3984L78.8438 17.4688C79.4688 17.4896 79.9818 17.6276 80.3828 17.8828C80.7891 18.138 81.0911 18.4688 81.2891 18.875C81.487 19.2812 81.5859 19.7188 81.5859 20.1875C81.5859 20.9115 81.4271 21.5182 81.1094 22.0078C80.7969 22.4974 80.3464 22.8698 79.7578 23.125C79.1693 23.375 78.4609 23.5 77.6328 23.5ZM83.5156 19.3672V19.1875C83.5156 18.5781 83.6042 18.013 83.7812 17.4922C83.9583 16.9661 84.2135 16.5104 84.5469 16.125C84.8854 15.7344 85.2969 15.4323 85.7812 15.2188C86.2708 15 86.8229 14.8906 87.4375 14.8906C88.0573 14.8906 88.6094 15 89.0938 15.2188C89.5833 15.4323 89.9974 15.7344 90.3359 16.125C90.6745 16.5104 90.9323 16.9661 91.1094 17.4922C91.2865 18.013 91.375 18.5781 91.375 19.1875V19.3672C91.375 19.9766 91.2865 20.5417 91.1094 21.0625C90.9323 21.5833 90.6745 22.0391 90.3359 22.4297C89.9974 22.8151 89.5859 23.1172 89.1016 23.3359C88.6172 23.5495 88.0677 23.6562 87.4531 23.6562C86.8333 23.6562 86.2786 23.5495 85.7891 23.3359C85.3047 23.1172 84.8932 22.8151 84.5547 22.4297C84.2161 22.0391 83.9583 21.5833 83.7812 21.0625C83.6042 20.5417 83.5156 19.9766 83.5156 19.3672ZM85.3984 19.1875V19.3672C85.3984 19.7474 85.4375 20.1068 85.5156 20.4453C85.5938 20.7839 85.7161 21.0807 85.8828 21.3359C86.0495 21.5911 86.263 21.7917 86.5234 21.9375C86.7839 22.0833 87.0938 22.1562 87.4531 22.1562C87.8021 22.1562 88.1042 22.0833 88.3594 21.9375C88.6198 21.7917 88.8333 21.5911 89 21.3359C89.1667 21.0807 89.2891 20.7839 89.3672 20.4453C89.4505 20.1068 89.4922 19.7474 89.4922 19.3672V19.1875C89.4922 18.8125 89.4505 18.4583 89.3672 18.125C89.2891 17.7865 89.1641 17.487 88.9922 17.2266C88.8255 16.9661 88.612 16.763 88.3516 16.6172C88.0964 16.4661 87.7917 16.3906 87.4375 16.3906C87.0833 16.3906 86.776 16.4661 86.5156 16.6172C86.2604 16.763 86.0495 16.9661 85.8828 17.2266C85.7161 17.487 85.5938 17.7865 85.5156 18.125C85.4375 18.4583 85.3984 18.8125 85.3984 19.1875ZM97.3281 15.0469V16.4219H92.5625V15.0469H97.3281ZM93.9375 12.9766H95.8203V21.1641C95.8203 21.4245 95.8568 21.625 95.9297 21.7656C96.0078 21.901 96.1146 21.9922 96.25 22.0391C96.3854 22.0859 96.5443 22.1094 96.7266 22.1094C96.8568 22.1094 96.9818 22.1016 97.1016 22.0859C97.2214 22.0703 97.3177 22.0547 97.3906 22.0391L97.3984 23.4766C97.2422 23.5234 97.0599 23.5651 96.8516 23.6016C96.6484 23.638 96.4141 23.6562 96.1484 23.6562C95.7161 23.6562 95.3333 23.5807 95 23.4297C94.6667 23.2734 94.4062 23.0208 94.2188 22.6719C94.0312 22.3229 93.9375 21.8594 93.9375 21.2812V12.9766Z" fill="white"/>
</svg>
